/* XPM */
static char *bitcoin32[] = {
/* columns rows colors chars-per-pixel */
"32 32 93 2 ",
"   c #010101",
".  c #070708",
"X  c #070808",
"o  c #0B0C0C",
"O  c #141414",
"+  c #161718",
"@  c #16191A",
"#  c #1A1B1B",
"$  c #1D1F20",
"%  c #1F2021",
"&  c #222324",
"*  c #262A2B",
"=  c #2A2C2C",
"-  c #2B2F30",
";  c #2E3132",
":  c #333535",
">  c #343738",
",  c #373A3B",
"<  c #3B3C3C",
"1  c #3F403F",
"2  c #3E4142",
"3  c #434444",
"4  c #474A47",
"5  c #444749",
"6  c #45494B",
"7  c #4B4C4C",
"8  c #50514F",
"9  c #4B4E50",
"0  c #4E5152",
"q  c #525454",
"w  c #575957",
"e  c #555758",
"r  c #56595A",
"t  c #5A5C5C",
"y  c #5E5E60",
"u  c #5D6262",
"i  c #636666",
"p  c #666867",
"a  c #646768",
"s  c #666A6B",
"d  c #6A6C6D",
"f  c #6F746E",
"g  c #666E70",
"h  c #696F71",
"j  c #6D7273",
"k  c #727575",
"l  c #767A76",
"z  c #767778",
"x  c #757A7A",
"c  c #7A7D7D",
"v  c #7E7F81",
"b  c #7D8282",
"n  c #828484",
"m  c #868887",
"M  c #828788",
"N  c #86898A",
"B  c #8A8D8C",
"V  c #8B9187",
"C  c #8B918B",
"Z  c #8B8F91",
"A  c #8D9192",
"S  c #929495",
"D  c #979A96",
"F  c #989E97",
"G  c #949798",
"H  c #95999A",
"J  c #9A9C9C",
"K  c #9B9EA1",
"L  c #9EA2A3",
"P  c #A4A6A6",
"I  c #A4A8A7",
"U  c #A4A7A9",
"Y  c #A6A9AA",
"T  c #AAACAC",
"R  c #ACB1AE",
"E  c #ADAFB1",
"W  c #AFB1B2",
"Q  c #B3B3B5",
"!  c #B4B9B6",
"~  c #B5B7B9",
"^  c #B5B9B8",
"/  c #BBBDBD",
"(  c #C0C2BF",
")  c #BBBFC0",
"_  c #BFC3C2",
"`  c #C3C4C3",
"'  c #C8CBCA",
"]  c #D6D7D6",
"[  c #D8D8D8",
"{  c #DEE0DF",
"}  c gray93",
"|  c #F9F9F9",
" . c None",
/* pixels */
" . . . . . . . . . . . . .N L T T W I J b  . . . . . . . . . . .",
" . . . . . . . . .< D / ^ P U Y T R G H I ^ ^  . . . . . . . . .",
" . . . . . . . .Z _ E U W Q Q L W Z ^ T U Z x B I  . . . . . . .",
" . . . . . .f ! ) Q Q Q Q Q Q L K h H E z A j 5 < R  . . . . . .",
" . . . . .V ^ ) Q Q Q Q Q Q Q K b Z a T u b a = 1 # J  . . . . .",
" . . . .V R ) Q Q Q Q Q Q E L L S K S a h x B 5 * 7 O S  . . . .",
" . . .V F ) Q Q Q ~ Q Q U H K M A a U 9 c 3 u v 0 , # + D  . . .",
" . .t l R ^ Q Q Q Q Q W Z K P Z x s s M r s 9 , o t q   : c  . .",
" . .C J ( Q Q Q Q Q Q P Z M Z h 0 x r 7 #     + 9 7 x X . x  . .",
" .k / / Q Q Q Q Q Q Q S N k v 9 , > a i 0 *     . r j *   % x  .",
" .[ ' / Q Q Q Q Q T B S k h N S N 7 % 6 r %     . @ j r &   v  .",
" .| ( W Q Q Q Q U S k S r M r M 2 o o - * % *   < @ u x O   <  .",
" .} / Q Q Q Q P Z c y S q y v h 6 g # % , x u   2 M g j o   O r ",
"S { / Q T P J n d d 9 k < > t S Z S s > ; b r   # g v j       t ",
"Q [ / T K S v i 9 9 y z * . 2 e a b x r o c .   o x b 6       q ",
"` ` ! D m k y 3 : = y q . % q 6 ; 7 c b b K .     u s :       t ",
"T T E v d q < * + < : 4 % 7 . # h j m G g u r . & 2 7 :       q ",
"v n L y 4 : & O . <   q a       , n h N b u x c k 0 2 t .     7 ",
"3 w B 1 : # o . . = * n X       = u 2 u : < 7 y r O 0 g >     q ",
"< 8 v = + .     > o i 2         @ * - X   2 s i &   X O X   X 3 ",
" .7 S +       o + % S o                 . d w t             =  .",
" .1 p t       = : j B                   7 C X =             3  .",
" .1 p D   + k   X k 3                   t D j i           o  . .",
" . .w l 5 3 L o > B k                   o * #             3  . .",
" . .1 7 D : p d 3 & .                           < <     #  . . .",
" . . .: t z                                 4   7 7 % . w  . . .",
" . . . .: d y           < :           . :   4 < o +   q  . . . .",
" . . . . .1 k y         t 7 = v O 4 : 1 # < + :   . i  . . . . .",
" . . . . . .# q k O     .   4 z X w = . 1 .     # z  . . . . . .",
" . . . . . . . .= n q X                     o t d  . . . . . . .",
" . . . . . . . . . .4 m f > o         O 3 f x  . . . . . . . . .",
" . . . . . . . . . . . . .t m B m n x p  . . . . . . . . . . . ."
};
