/* XPM */
static char *bitcoin64[] = {
/* columns rows colors chars-per-pixel */
"64 64 135 2 ",
"   c #000000",
".  c #060807",
"X  c #070708",
"o  c #070809",
"O  c #0B0C0C",
"+  c #0F100F",
"@  c #0D0F10",
"#  c #0F1111",
"$  c #131414",
"%  c #161817",
"&  c #151718",
"*  c #171819",
"=  c #1B1C1C",
"-  c #1F201F",
";  c #1D1F20",
":  c #1E2122",
">  c #232424",
",  c #242728",
"<  c #26292B",
"1  c #2B2C2C",
"2  c #2E302F",
"3  c #262E31",
"4  c #2A2F31",
"5  c #2E3133",
"6  c #2F3538",
"7  c #333434",
"8  c #373837",
"9  c #333738",
"0  c #36393A",
"q  c #3B3C3C",
"w  c #3E403E",
"e  c #343D40",
"r  c #3D3F40",
"t  c #3E4244",
"y  c #434444",
"u  c #444943",
"i  c #444749",
"p  c #454A4B",
"a  c #4A4C4C",
"s  c #4F514F",
"d  c #474F52",
"f  c #4C4F50",
"g  c #4D5253",
"h  c #525454",
"j  c #565856",
"k  c #585A57",
"l  c #535758",
"z  c #555A5B",
"x  c #5A5C5C",
"c  c #5E605F",
"v  c #60615F",
"b  c #565E60",
"n  c #5C5F61",
"m  c #576062",
"M  c #5C6162",
"N  c #626464",
"B  c #656964",
"V  c #656768",
"C  c #656A6B",
"Z  c #6B6C6C",
"A  c #6E706F",
"S  c #71776F",
"D  c #656D70",
"F  c #6B6F71",
"G  c #6D7172",
"H  c #6F787A",
"J  c #727474",
"K  c #777977",
"L  c #787A75",
"P  c #747779",
"I  c #757A7B",
"U  c #7B7D7D",
"Y  c #7D817D",
"T  c #777D80",
"R  c #7C7F81",
"E  c #7D8182",
"W  c #7F8689",
"Q  c #838585",
"!  c #848986",
"~  c #898B87",
"^  c #848688",
"/  c #858A8B",
"(  c #8A8C8D",
")  c #869085",
"_  c #899186",
"`  c #8D928D",
"'  c #90968D",
"]  c #858D90",
"[  c #8A8E91",
"{  c #879094",
"}  c #8E9292",
"|  c #8F9698",
" . c #8F989D",
".. c #929494",
"X. c #959A95",
"o. c #999C95",
"O. c #939798",
"+. c #969A9B",
"@. c #9A9C9C",
"#. c #99A097",
"$. c #9DA19E",
"%. c #969DA1",
"&. c #9D9EA0",
"*. c #97A0A4",
"=. c #9EA1A2",
"-. c #A2A4A4",
";. c #A5A6A8",
":. c #A5A9A9",
">. c #ABACAD",
",. c #ADB1AE",
"<. c #A6AEB2",
"1. c #AEAFB1",
"2. c #AEB1B2",
"3. c #B3B3B5",
"4. c #B6B9B7",
"5. c #B5B6B8",
"6. c #B7BAB9",
"7. c #BABCBC",
"8. c #BBC1BF",
"9. c #BEC3C2",
"0. c #C2C4C4",
"q. c #C4C9C5",
"w. c #C6C9C9",
"e. c #CACDCB",
"r. c #CDD0CF",
"t. c #D1D5CF",
"y. c #CFD3D1",
"u. c #D2D4D3",
"i. c #D8D8D6",
"p. c #DADCDB",
"a. c #E2E3E3",
"s. c #EBECEB",
"d. c #F4F5F4",
"f. c #FBFBFB",
"g. c None",
/* pixels */
"g.g.g.g.g.g.g.g.g.g.g.g.g.g.g.g.g.g.g.g.g.g.g.g.g.g.g.y M Q -.>.4.4.4.4.:.Q J g.g.g.g.g.g.g.g.g.g.g.g.g.g.g.g.g.g.g.g.g.g.g.g.g.",
"g.g.g.g.g.g.g.g.g.g.g.g.g.g.g.g.g.g.g.g.g.g.g.u U 7.p.a.u.9.3.>.=.=.:.,.,.7.e.a.s.s.2.B g.g.g.g.g.g.g.g.g.g.g.g.g.g.g.g.g.g.g.g.",
"g.g.g.g.g.g.g.g.g.g.g.g.g.g.g.g.g.g.g.g.y U 3.p.y.4.;.X.+.&.;.:.:.>.,.2.:.} ..@.=.2.u.p.p.Q g.g.g.g.g.g.g.g.g.g.g.g.g.g.g.g.g.g.",
"g.g.g.g.g.g.g.g.g.g.g.g.g.g.g.g.g.g.j ' q.p.6.-.:.<.>.>.2.1.<.2.2.2.,.:.| [ O.=.<.-...+.2.u.r.J g.g.g.g.g.g.g.g.g.g.g.g.g.g.g.g.",
"g.g.g.g.g.g.g.g.g.g.g.g.g.g.g.g.h U 4.t.5.;.;.;.>.2.5.6.6.5. .2.2.2.1.] 2.5.2.<.<.3.O.U Q Q @.e.0.s g.g.g.g.g.g.g.g.g.g.g.g.g.g.",
"g.g.g.g.g.g.g.g.g.g.g.g.g.g.u Y -.0.8.7.1.;.1.1.3.2.3.5.3.3.{ <.<.3./ J >.w.5.+.( <./ &.R l f J ,.i.@.g.g.g.g.g.g.g.g.g.g.g.g.g.",
"g.g.g.g.g.g.g.g.g.g.g.g.g.S ' ,.0.9.7.1.1.1.3.3.3.3.3.3.3.3...1.%.<.l E } 5.0.( k 5. .J @.G d = q ( e.w.g.g.g.g.g.g.g.g.g.g.g.g.",
"g.g.g.g.g.g.g.g.g.g.g.g.X.#.q.w.0.3.1.3.3.3.3.3.3.3.3.3.3.1.] 3.{ @.h Q / +.w.-.q ( 3.] D g M g O % G 6.r.s g.g.g.g.g.g.g.g.g.g.",
"g.g.g.g.g.g.g.g.g.g.W _ X.e.9.9.1.3.3.3.3.3.3.3.3.3.3.3.3.3.^ 5.^ H J G a G 3.6.a F F 1.Z 0 1 p k X X s 1.u.a g.g.g.g.g.g.g.g.g.",
"g.g.g.g.g.g.g.g.g.' ) ` 8.8.9.,.3.5.3.3.3.3.3.3.3.5.3.3.3.3.R 5.&.C =.3.&.r Q 7.V Z n W ,.a ; * e x ,   y >.y.g.g.g.g.g.g.g.g.g.",
"g.g.g.g.g.g.g.g._ _ ' 8.6.9.4.4.3.3.3.3.3.3.3.3.3.5.3.3.1.;.] 6.<.T ;.5.>.U r 1.E i J +.U D 6 @ & 0 P = X 8 :.0.g.g.g.g.g.g.g.g.",
"g.g.g.g.g.g.g.~ ' ) ,.9.9.4.3.2.3.3.3.3.5.3.3.3.3.3.3.&. .*.[ 1.3.J T =.3.P a v >.r q } ;.=.P N r $ V 2 X X q -.1.g.g.g.g.g.g.g.",
"g.g.g.g.g.g.A ' _ o.4.w.4.3.3.3.3.3.3.3.3.3.3.3.3.1.| | %.O.&.T 1.G b T 8.[ x 7 @.G , N I ` 2.g H % 5 p 1     a 8.U g.g.g.g.g.g.",
"g.g.g.g.g.g.o.o.#.>.0.3.4.3.3.3.3.3.3.3.3.3.3.3.1.[ %. .%.1.;.n ;.T n M ..9.V 0 i >.1 d < l U I 9 Q < t i     X V 0.g.g.g.g.g.g.",
"g.g.g.g.g.L B v X.4.6.7.3.5.3.3.3.3.5.3.3.5.3.3./ &.O.;.;.;.;.J I ..G d V +.6.y > I J d = 5 & O   * U h Z =     + Q 8.g.g.g.g.g.",
"g.g.g.g.k ' _ ) >.8.7.3.3.3.3.3.3.3.3.3.3.3.3.>.I %.*.O.&.;.O.R p @.H V y x O./ n N G J J I G h #   9 C Z N       7 :.Y g.g.g.g.",
"g.g.g.g.Y L L $.0.3.7.3.3.3.3.3.3.3.3.3.3.3.3.&.W O./ Q *./ U Z k h ..F V 0 i k r & o     . & y U a O M G I .     . N 9.g.g.g.g.",
"g.g.g.j -.-.o.7.7.0.3.3.3.3.3.3.3.3.3.3.3.3.3.^ [ { F &.@.K Z n h q N / z P p 0 $               O V J p D W * .     = @.' g.g.g.",
"g.g.g.:.7.3.:.q.7.3.3.3.3.3.3.3.3.3.3.3.3.3.3.U / ] x :.[ V x s y q 1 N ] t i Q p                 # B ^ E { > 9       N 0.g.g.g.",
"g.g.g.p.i.>.3.q.3.3.3.3.3.3.3.3.3.3.3.3.3.1.&.R T O.f U :.N a r 9 1 1 = y / U d O.N 7 M O           5 g z M p .       > +.A g.g.",
"g.g.o.d.s.>.q.3.3.3.3.3.3.3.3.3.3.3.3.1.;.&...( x &.G p X.2.O.Q P n i 1 . % i Q z / h 5             3 X d a . % =       A >.g.g.",
"g.g.p.d.p.3.0.3.3.3.3.3.3.3.3.3.3.3.1.;...V 1.^ g ^ ..V l ( O.+.@.3.G p q 3 $ q b 4             # .   3 Q ;.} -.V       8 ,.g.g.",
"g.g.f.f.0.9.3.,.3.3.3.3.3.3.3.3.1.;.&.O.U Z ;.^ g Z W } t Z } ~ J G 3   O : g t t ,   # < .     t ,   > Z / Q H %       O Q V g.",
"g.L f.f.3.e.1.3.3.3.3.3.3.3.3.1.;.&...R ( h ;.J a j D X.M f [ F & X         . ; o e q 3 l ;     3 C 9 @ 0 b V W q         x ..g.",
"g.>.f.s.3.0.3.3.3.3.3.3.3.3.3.;.&.( ^ P ^ i ;.V i i V V -.p U Z > l G z &   3 O : g $.9 D q     : Y E G g g ! G 5         7 ;.g.",
"g.a.f.u.7.0.3.3.3.3.1.3.1.1.&.&.( ^ P U P r ^ 1.[ 9 J r Y =.b Z l g F G g . g X : x ] / [ h     # x +.{ W / c D .         = ..g.",
"g.f.f.e.7.7.3.3.1.1.>.>.;.&...^ U J V U n i F R x , r f g ~ ;...] ` ..@.>.J N   , t M / :.a     . 0 H E H W ;.Z           O U g.",
"g.f.f.7.7.3.3.3.>.;.&.&.@.( ^ U Z n h J i a ^ l f ; $ r 0 k W } [ [ ..[ d 0 D . O f / ( b #       4 b m G | D i             B h ",
"g.f.f.3.w.>.1.1.;.&.@...^ R J V x h y Z h h &.i F @   X > 0 x J ! ~ } >.E O C =   % J I #         : ~ H E [ l g             s h ",
"L d.f.1.e.>.>.;.&.O...( U J N h a r 7 x ^ l ^ V 4 X     5 R z 9 q a x J -.-.F U . + G ..          # M H } m 6 i             y N ",
"-.d.d.-.e.;.-.@...^ Q K Z v h a q 7 1 y h R r P X     ; ^ d g & . . # : j +.E ] } I ( >..         . l I V I i 1             q L ",
"@.p.a.o.e.&.o.( Q K J N x a y 7 1 1 - 1 ^ 1 > V     O n J O l M 6 I / G A } =.z J [ ..5.$         . i C 6 } i =             0 Q ",
"o.e.e.@.u...( R J Z v k a w 7 1 > % = l G   9 x     i J @   @ g M ( T D ! } $.W l I U E W <     . : t t * [ 0 >             q U ",
"~ 7.7.( e.( U J V x s y q 7 , = % + i 0 0 1 : C = M V #       $ p ! W z P ~ } ;.D Z t p G t %   # x F # # I a >             q x ",
"J ( ..Q w.U Z v x a w 8 1 > = $ O X M =     o J -.G o         O > Z @.m n Q ` X.>.z C i g -.Q 2 > E [ o = C F i             p f ",
"Z ( ^ L e.J v s y q 8 1 > % $ @ X   N @   . i ^ E O             = t } E b G Y U ! / H m M ~ =.-.X...-.O $ F N l =         . h h ",
"q A A Z 7.Z y q 8 7 1 - % + X       N     8 Q +.=               $ 0 A +.z g g t t g p l i x J E E ! i   > [ R 5 k           B g.",
"g.y q s >.v q 8 2 > - $ O .       = l   @ x @.k                 9 4 i q = q ] M > = : 6 g 6 0 a t =     - J I Q Q           I g.",
"g.v k s o.V 8 1 - = $ O .         l ,   > Q X.@                 > t p y p h -         k I b C / G o     . = , 1 =         O Q g.",
"g.v s a U ~ > - $ O X X         3 k   . p &.x                         # : .         , Y =.6 p l #                         > Y g.",
"g.s u w Z 4.% O .             @ a o   = J ,.>                                       q } } 2 g f                           y x g.",
"g.8 s a B 4.y                 > .   O g } -..                                     % x ( f f ( y                           G g.g.",
"g.g.v a N ` o.X             9 i # $ a E @.}                                     = V ..@.>   2 O                         % U g.g.",
"g.g.8 - q Z e.O               8 x l U E +.V                                     2 Y =.G     n =                         y g.g.g.",
"g.g.g.a y x 3.V       O Z s       % U g U %                                     8 / +.,.h s :.<                       X A g.g.g.",
"g.g.g.L L Q ! 3.O   . a -.V       % Q R U                                       5 K ~ ..../ ..=                       2 j g.g.g.",
"g.g.g.q j k Z 3.j   $ N -.[       8 ! $.7.2                                     + < i s r 2 #                       X A g.g.g.g.",
"g.g.g.g.x a a Y 4.+ = P ..6.2 . 4 A / Q O.a                                                                         0 k g.g.g.g.",
"g.g.g.g.y s c A :.P = N Q ..:.( J A j 0 &                                                         > q             O Q g.g.g.g.g.",
"g.g.g.g.g.Z > q J q.8 > 8 y i 8 = #                                                             a ~ x x           x s g.g.g.g.g.",
"g.g.g.g.g.g.7 j j ( 1.+                                                                 3.O   X J A   J L       2 Q g.g.g.g.g.g.",
"g.g.g.g.g.g.g., 8 j @.~ .                                                               = a       h J q $     % ..g.g.g.g.g.g.g.",
"g.g.g.g.g.g.g.g.y y x >.V                         2 >                                 X L ( >     $ c       O ~ g.g.g.g.g.g.g.g.",
"g.g.g.g.g.g.g.g.g.w y N 2.x                     A N Y 7       X               % P N       + ^ h =         X Q g.g.g.g.g.g.g.g.g.",
"g.g.g.g.g.g.g.g.g.g.y j V 5.N                   Q   7 v   ` J J q   % A s   X Y $ y x     y } q         O Y x g.g.g.g.g.g.g.g.g.",
"g.g.g.g.g.g.g.g.g.g.g.a s v >.J .               K V } +   $ >.A #   Q % A X   U + O !     %           $ ( Y g.g.g.g.g.g.g.g.g.g.",
"g.g.g.g.g.g.g.g.g.g.g.g., 1 j @.} $               = X   + Z Q s     (         % Y Q =               , =.Q g.g.g.g.g.g.g.g.g.g.g.",
"g.g.g.g.g.g.g.g.g.g.g.g.g.% $ w ~ >.w                   1 J s :.7   a ~ ( >                     O v >.N g.g.g.g.g.g.g.g.g.g.g.g.",
"g.g.g.g.g.g.g.g.g.g.g.g.g.g.g.$ > Z >.( ,                                                     7 @.X.y g.g.g.g.g.g.g.g.g.g.g.g.g.",
"g.g.g.g.g.g.g.g.g.g.g.g.g.g.g.g.X + y ( 3.L < .                                         . 2 ..,.N g.g.g.g.g.g.g.g.g.g.g.g.g.g.g.",
"g.g.g.g.g.g.g.g.g.g.g.g.g.g.g.g.g.g.O - j ..2.X.s %                                 + s @.,.J g.g.g.g.g.g.g.g.g.g.g.g.g.g.g.g.g.",
"g.g.g.g.g.g.g.g.g.g.g.g.g.g.g.g.g.g.g.g.g., s Q :.3.( h 1 $ .           . . % 2 N @.7.,.J g.g.g.g.g.g.g.g.g.g.g.g.g.g.g.g.g.g.g.",
"g.g.g.g.g.g.g.g.g.g.g.g.g.g.g.g.g.g.g.g.g.g.g.g.8 j U $.2.7.4.>.:.-.-.-.-.2.3.,.+.Z g.g.g.g.g.g.g.g.g.g.g.g.g.g.g.g.g.g.g.g.g.g.",
"g.g.g.g.g.g.g.g.g.g.g.g.g.g.g.g.g.g.g.g.g.g.g.g.g.g.g.0 s k v Z Z Z B N h y g.g.g.g.g.g.g.g.g.g.g.g.g.g.g.g.g.g.g.g.g.g.g.g.g.g."
};
